<svg width="63" height="92" viewBox="0 0 63 92" fill="none" xmlns="http://www.w3.org/2000/svg">
<path fill-rule="evenodd" clip-rule="evenodd" d="M20.6037 86.7684C18.4937 85.784 16.2526 84.6461 13.9317 83.705C13.1204 83.3757 12.2532 83.341 12.1176 82.2761C12.0899 82.0573 12.0368 81.7325 12.1549 81.6216C14.1592 79.7413 15.1361 77.1785 16.6909 75.0042C17.7322 73.5483 19.0087 72.3049 20.8261 71.8096C21.1888 71.7109 21.6332 71.8904 22.0396 71.9418C21.9801 72.3336 22.0332 72.792 21.8432 73.1059C20.4612 75.388 19.0528 77.6556 17.6018 79.8951C17.1466 80.5977 17.3973 80.8476 18.0497 81.1906C19.555 81.9823 20.9974 82.8906 22.4937 83.6998C23.1332 84.046 23.8422 84.2651 24.5223 84.5349C24.5792 84.5574 24.6776 84.4935 24.7236 84.522C25.1999 84.8162 26.0973 85.2023 26.0595 85.4078C25.9511 86.0011 25.5775 86.6503 25.1071 87.0481C23.6534 88.2773 22.2163 87.2043 20.6037 86.7684Z" fill="#FFDF73"/>
<path fill-rule="evenodd" clip-rule="evenodd" d="M40.9077 57.0293C41.0146 57.0238 41.1221 57.0178 41.2289 57.0123L40.7402 53.8438C40.6174 53.8613 40.4948 53.8793 40.3723 53.897C40.5507 54.9408 40.7293 55.9854 40.9077 57.0293ZM46.5485 35.7599C46.6315 35.7485 46.7146 35.7371 46.7976 35.7257C46.7071 34.0358 46.6162 32.3458 46.5254 30.6554C46.4028 30.6612 46.28 30.6673 46.1577 30.6732C46.2878 32.3687 46.4183 34.0644 46.5485 35.7599ZM32.7298 46.5498C31.5585 46.3496 30.3903 46.1266 29.2146 45.9566C28.4884 45.8514 28.1537 46.2124 28.0534 46.9439C27.74 49.2357 29.0561 51.5016 31.2572 52.5251C33.6563 53.6409 35.7026 52.7891 37.676 51.5363C37.8305 51.4384 37.8357 50.8669 37.7063 50.6185C36.6388 48.574 34.8261 47.4296 32.7298 46.5498ZM43.7647 42.7732C46.1203 37.024 45.6861 31.3015 43.6044 25.549C41.2346 19.0002 37.5188 13.2298 33.2121 7.7885C31.9079 6.1406 30.5604 4.52486 29.2972 2.84727C28.9579 2.39745 28.6772 1.76271 28.7054 1.2331C28.7247 0.867604 29.3211 0.536925 29.6602 0.190962C29.8604 0.409613 30.0723 0.619961 30.2592 0.849159C30.7623 1.46721 31.2072 2.13916 31.7608 2.70775C33.5619 4.55887 35.433 6.3433 37.2145 8.21203C38.4152 9.47162 39.566 10.7874 40.6317 12.1593C41.3046 13.026 41.7328 14.0741 42.3543 14.9854C43.3389 16.4297 44.5395 17.7491 45.384 19.2644C46.6991 21.6229 48.0247 24.0214 48.9318 26.5457C50.9369 32.1259 50.8724 37.6905 48.4488 43.1858C47.3211 45.7431 46.3061 48.3162 44.3688 50.4127C44.157 50.6418 44.1487 51.2129 44.2633 51.5552C45.4215 55.0031 45.4187 58.4744 44.3989 61.8948C43.636 64.4545 42.8937 67.0917 41.6102 69.4019C40.5337 71.3399 38.8125 72.9873 37.1468 74.5188C35.6656 75.8799 33.9346 77.0122 32.1959 78.0546C29.7187 79.539 26.9425 80.2228 24.0421 80.2842C23.6257 80.293 23.0428 79.7996 22.8046 79.3881C22.5394 78.931 22.8901 78.5433 23.3161 78.1116C24.6496 76.7605 26.4276 76.668 28.0801 76.2736C31.2112 75.527 33.5807 73.6702 35.3831 71.2109C38.4587 67.0151 39.6095 62.1382 39.6168 56.9973C39.6201 54.22 39.5095 54.2066 37.0723 55.3344C33.8649 56.8188 30.5892 57.0879 27.2843 55.6676C23.4484 54.0189 21.8783 49.7993 23.5875 46.0421C24.1243 44.8629 25.1802 44.3141 26.2464 43.8061C28.6684 42.6523 31.2341 42.4539 33.8539 43.0193C36.5641 43.6038 39.1451 44.4775 41.1223 46.5783C41.5998 47.0855 41.9587 46.8987 42.2118 46.2996C42.7119 45.1166 43.2453 43.9479 43.7647 42.7732Z" fill="#FFDF73"/>
</svg>
