<svg width="47" height="106" viewBox="0 0 47 106" fill="none" xmlns="http://www.w3.org/2000/svg">
<path fill-rule="evenodd" clip-rule="evenodd" d="M27.3641 104.805C24.5273 104.498 21.4778 104.064 18.4136 103.89C17.3423 103.829 16.3227 104.132 15.7442 102.951C15.6255 102.708 15.4355 102.352 15.5287 102.177C17.1097 99.2029 17.2293 95.8439 18.1728 92.707C18.8048 90.6064 19.7937 88.6594 21.7057 87.3661C22.0874 87.1081 22.6738 87.1406 23.1656 87.0395C23.2515 87.5175 23.4944 88.0282 23.3982 88.4674C22.6977 91.661 21.9609 94.8482 21.1636 98.0198C20.9136 99.0148 21.3033 99.2054 22.1957 99.3453C24.2547 99.6683 26.287 100.151 28.3427 100.498C29.2213 100.647 30.1303 100.62 31.0259 100.664C31.1007 100.668 31.1896 100.555 31.2543 100.57C31.9231 100.723 33.1167 100.816 33.1542 101.069C33.2631 101.8 33.0864 102.701 32.6981 103.348C31.4982 105.349 29.4069 104.673 27.3641 104.805Z" fill="#BDB2FC"/>
<path fill-rule="evenodd" clip-rule="evenodd" d="M39.1532 62.2797C39.275 62.2311 39.3973 62.1815 39.519 62.1329L37.699 58.6511C37.5634 58.72 37.4283 58.7894 37.2933 58.8583C37.9131 59.9984 38.5334 61.1395 39.1532 62.2797ZM37.2836 35.3783C37.3754 35.3323 37.4672 35.2862 37.559 35.2402C36.7857 33.3159 36.0118 31.3915 35.238 29.4667C35.098 29.5219 34.958 29.5776 34.8185 29.6328C35.6401 31.548 36.4621 33.4632 37.2836 35.3783ZM25.5223 53.3591C24.0846 53.5901 22.6414 53.7935 21.2104 54.0612C20.3265 54.2265 20.0811 54.7776 20.254 55.6657C20.7968 58.4479 23.2197 60.5557 26.1775 60.8722C29.4016 61.2176 31.4382 59.4203 33.2317 57.1866C33.3722 57.012 33.1521 56.3471 32.9038 56.1102C30.857 54.1609 28.3018 53.5504 25.5223 53.3591ZM36.8289 44.614C37.2874 37.0137 34.5205 30.5479 29.8309 24.6989C24.4921 18.0401 17.8998 12.8166 10.7524 8.20851C8.58787 6.81293 6.38592 5.47174 4.25724 4.02549C3.68581 3.63792 3.10916 3.01271 2.93235 2.38727C2.81023 1.95569 3.37119 1.33626 3.62766 0.800869C3.94636 0.975299 4.27539 1.13545 4.58275 1.32742C5.4108 1.84529 6.19263 2.44873 7.05957 2.88931C9.88085 4.32409 12.7569 5.65384 15.5623 7.11681C17.4532 8.10293 19.3084 9.17392 21.0871 10.3438C22.2104 11.0829 23.1217 12.1293 24.2029 12.9404C25.9161 14.2263 27.8305 15.2819 29.4094 16.7055C31.8677 18.9209 34.3539 21.1787 36.4043 23.7479C40.937 29.4274 43.063 35.9073 42.4253 43.2399C42.1287 46.6522 41.969 50.0382 40.5512 53.2361C40.3961 53.5856 40.6123 54.2513 40.8807 54.6031C43.5877 58.1441 44.9573 62.1717 45.1272 66.5424C45.2547 69.813 45.4368 73.1656 44.8616 76.3528C44.3795 79.0265 43.0347 81.6181 41.7083 84.0532C40.5286 86.2178 38.9686 88.2158 37.3641 90.1125C35.0779 92.8141 32.1283 94.7051 28.7883 95.9235C28.3088 96.0984 27.4376 95.7566 26.9985 95.3736C26.5102 94.9482 26.7636 94.3598 27.0869 93.6907C28.0993 91.5961 30.125 90.7856 31.8859 89.6745C35.2224 87.5702 37.2364 84.4794 38.3544 80.914C40.2622 74.8308 39.6683 68.7189 37.6434 62.753C36.5489 59.5304 36.4153 59.5585 34.0344 61.8306C30.9012 64.821 27.2081 66.4286 22.813 66.0883C17.7117 65.6931 14.2216 61.4197 14.7182 56.3857C14.8744 54.8056 15.8822 53.7514 16.9179 52.7405C19.2709 50.4443 22.1684 49.1994 25.4307 48.8192C28.8055 48.4252 32.1448 48.4178 35.269 50.0726C36.0234 50.472 36.3659 50.1134 36.4225 49.3184C36.5347 47.7484 36.6911 46.1819 36.8289 44.614Z" fill="#BDB2FC"/>
</svg>
