<svg width="13" height="12" viewBox="0 0 13 12" fill="none" xmlns="http://www.w3.org/2000/svg">
<path d="M12 6.74994C12.4142 6.74994 12.75 6.41415 12.75 5.99994C12.75 5.58573 12.4142 5.24994 12 5.24994L12 6.74994ZM0.46967 5.46961C0.176777 5.7625 0.176777 6.23738 0.46967 6.53027L5.24264 11.3032C5.53553 11.5961 6.01041 11.5961 6.3033 11.3032C6.59619 11.0103 6.59619 10.5355 6.3033 10.2426L2.06066 5.99994L6.3033 1.7573C6.59619 1.46441 6.59619 0.989532 6.3033 0.696639C6.01041 0.403745 5.53553 0.403745 5.24264 0.696639L0.46967 5.46961ZM12 5.24994L1 5.24994L1 6.74994L12 6.74994L12 5.24994Z" fill="#05BB75"/>
</svg>
