<svg width="30" height="30" viewBox="0 0 30 30" fill="none" xmlns="http://www.w3.org/2000/svg">
<rect width="30" height="30" rx="15" fill="#F2F4F3"/>
<path d="M7.95481 9.91926C8.38562 9.45815 9.07543 8.76756 9.66966 8.1805C10.3011 7.55663 11.3172 7.56881 11.9403 8.20108L13.1811 9.46019C13.6504 9.93643 13.6285 10.6903 13.209 11.211C12.1188 12.5644 12.3672 13.4445 14.235 15.3123C16.1049 17.1822 16.9597 17.4039 18.3124 16.3064C18.8299 15.8866 19.5812 15.8673 20.0559 16.3351L21.3392 17.5999C21.9719 18.2235 21.9835 19.2403 21.359 19.8719C20.7733 20.4643 20.0846 21.1522 19.622 21.5865C16.652 24.3747 5.17344 12.8963 7.95481 9.91926Z" stroke="#222D50" stroke-width="1.21291"/>
</svg>
