<svg width="30" height="30" viewBox="0 0 30 30" fill="none" xmlns="http://www.w3.org/2000/svg">
<path d="M0 15.0118C0 6.72757 6.71573 0 15 0C23.2843 0 30 6.71573 30 15C30 23.2843 23.2724 30 14.9882 30C6.71696 30 0 23.283 0 15.0118Z" fill="#F2F4F3"/>
<path d="M22.08 16.0493C22.08 12.7191 19.3804 10.0195 16.0503 10.0195C12.7201 10.0195 10.0205 12.7191 10.0205 16.0493V21.4248C10.0205 21.7254 10.3368 21.9208 10.6057 21.7864L12.4318 20.8731C13.4397 21.6303 14.6926 22.079 16.0503 22.079C19.3804 22.079 22.08 19.3794 22.08 16.0493Z" stroke="#222D50" stroke-width="1.21291"/>
<path d="M13.2031 17.3896H16.888" stroke="#222D50" stroke-width="1.21291" stroke-linecap="round"/>
<path d="M13.2031 14.71H18.8979" stroke="#222D50" stroke-width="1.21291" stroke-linecap="round"/>
<path d="M9.87323 18.315L8.04706 19.2283C7.77824 19.3627 7.46191 19.1673 7.46191 18.8667V13.4912C7.46191 10.161 10.1615 7.46143 13.4917 7.46143C15.8349 7.46143 17.8659 8.79802 18.8639 10.7504" stroke="#222D50" stroke-width="1.21291"/>
</svg>
