<svg width="24" height="24" viewBox="0 0 24 24" fill="none" xmlns="http://www.w3.org/2000/svg">
<path d="M2.5 8.91667V4C2.5 3.17157 3.17157 2.5 4 2.5H8.91667C9.74509 2.5 10.4167 3.17157 10.4167 4V8.91667C10.4167 9.74509 9.74509 10.4167 8.91667 10.4167H4C3.17157 10.4167 2.5 9.74509 2.5 8.91667Z" stroke="#C2C5CE" stroke-width="2"/>
<path d="M2.5 20V15.0834C2.5 14.2549 3.17157 13.5834 4 13.5834H8.91667C9.74509 13.5834 10.4167 14.2549 10.4167 15.0834V20C10.4167 20.8285 9.74509 21.5 8.91667 21.5H4C3.17157 21.5 2.5 20.8285 2.5 20Z" stroke="#C2C5CE" stroke-width="2"/>
<path d="M13.583 8.91667V4C13.583 3.17157 14.2546 2.5 15.083 2.5H19.9997C20.8281 2.5 21.4997 3.17157 21.4997 4V8.91667C21.4997 9.74509 20.8281 10.4167 19.9997 10.4167H15.083C14.2546 10.4167 13.583 9.74509 13.583 8.91667Z" stroke="#C2C5CE" stroke-width="2"/>
<path d="M13.583 20V15.0834C13.583 14.2549 14.2546 13.5834 15.083 13.5834H19.9997C20.8281 13.5834 21.4997 14.2549 21.4997 15.0834V20C21.4997 20.8285 20.8281 21.5 19.9997 21.5H15.083C14.2546 21.5 13.583 20.8285 13.583 20Z" stroke="#C2C5CE" stroke-width="2"/>
</svg>
