<svg width="30" height="30" viewBox="0 0 30 30" fill="none" xmlns="http://www.w3.org/2000/svg">
<path d="M0 15.0006C0 6.7163 6.71573 0 15 0C23.2843 0 30 6.71573 30 15C30 23.2843 23.2837 30 14.9994 30C6.71579 30 0 23.2842 0 15.0006Z" fill="#F2F4F3"/>
<path d="M15.2286 7.21875C18.3724 7.21875 21.2928 9.67634 21.2928 12.7768C21.2928 14.8261 20.5836 16.275 19.395 17.9643C18.0772 19.8371 16.397 21.6011 15.6322 22.3728C15.4035 22.6036 15.0358 22.6036 14.8071 22.3728C14.0423 21.6011 12.3622 19.8371 11.0444 17.9643C9.85573 16.275 9.14648 14.8261 9.14648 12.7768C9.14648 9.67634 12.0669 7.21875 15.2107 7.21875" stroke="#222D50" stroke-width="1.21291" stroke-linecap="round"/>
<path d="M17.4973 13.1044C17.4973 14.3443 16.4809 15.3698 15.2234 15.3698C13.9659 15.3698 12.9424 14.3443 12.9424 13.1044C12.9424 11.8645 13.9659 10.9242 15.2234 10.9242C16.4809 10.9242 17.4973 11.8645 17.4973 13.1044Z" stroke="#222D50" stroke-width="1.21291"/>
</svg>
