<svg width="168" height="48" viewBox="0 0 168 48" fill="none" xmlns="http://www.w3.org/2000/svg">
<rect x="0.25" y="0.25" width="167.5" height="47.5" rx="4.75" fill="#222D50" stroke="#D3D5D9" stroke-width="0.5"/>
<path d="M26.8186 32.168C24.8506 32.168 23.2346 31.704 21.9706 30.776C20.7066 29.832 20.0266 28.488 19.9306 26.744H24.9466C24.9946 27.336 25.1706 27.768 25.4746 28.04C25.7786 28.312 26.1706 28.448 26.6506 28.448C27.0826 28.448 27.4346 28.344 27.7066 28.136C27.9946 27.912 28.1386 27.608 28.1386 27.224C28.1386 26.728 27.9066 26.344 27.4426 26.072C26.9786 25.8 26.2266 25.496 25.1866 25.16C24.0826 24.792 23.1866 24.44 22.4986 24.104C21.8266 23.752 21.2346 23.248 20.7226 22.592C20.2266 21.92 19.9786 21.048 19.9786 19.976C19.9786 18.888 20.2506 17.96 20.7946 17.192C21.3386 16.408 22.0906 15.816 23.0506 15.416C24.0106 15.016 25.0986 14.816 26.3146 14.816C28.2826 14.816 29.8506 15.28 31.0186 16.208C32.2026 17.12 32.8346 18.408 32.9146 20.072H27.8026C27.7866 19.56 27.6266 19.176 27.3226 18.92C27.0346 18.664 26.6586 18.536 26.1946 18.536C25.8426 18.536 25.5546 18.64 25.3306 18.848C25.1066 19.056 24.9946 19.352 24.9946 19.736C24.9946 20.056 25.1146 20.336 25.3546 20.576C25.6106 20.8 25.9226 21 26.2906 21.176C26.6586 21.336 27.2026 21.544 27.9226 21.8C28.9946 22.168 29.8746 22.536 30.5626 22.904C31.2666 23.256 31.8666 23.76 32.3626 24.416C32.8746 25.056 33.1306 25.872 33.1306 26.864C33.1306 27.872 32.8746 28.776 32.3626 29.576C31.8666 30.376 31.1386 31.008 30.1786 31.472C29.2346 31.936 28.1146 32.168 26.8186 32.168ZM42.4214 15.08V32H37.7174V15.08H42.4214ZM60.2442 15.08V18.824H55.7322V32H51.0282V18.824H46.5642V15.08H60.2442ZM69.0886 18.848V21.608H74.4886V25.184H69.0886V28.232H75.2086V32H64.3846V15.08H75.2086V18.848H69.0886Z" fill="white"/>
<path d="M92.6771 15.08V18.824H88.1651V32H83.4611V18.824H78.9971V15.08H92.6771ZM101.521 18.848V21.608H106.921V25.184H101.521V28.232H107.641V32H96.8174V15.08H107.641V18.848H101.521ZM132.118 15.08V32H127.414V22.664L124.222 32H120.286L117.07 22.592V32H112.366V15.08H118.054L122.302 26.072L126.454 15.08H132.118ZM141.9 18.848V21.608H147.3V25.184H141.9V28.232H148.02V32H137.196V15.08H148.02V18.848H141.9Z" fill="#05BB75"/>
</svg>
