<svg width="28" height="28" viewBox="0 0 28 28" fill="none" xmlns="http://www.w3.org/2000/svg">
<path d="M2.8291 13.5413C2.8291 19.8005 7.90321 24.8747 14.1624 24.8747C19.4327 24.8747 23.8627 21.2774 25.1311 16.4042C25.2107 16.0983 24.9735 15.8081 24.6574 15.8081H20.8957C20.6865 15.8081 20.501 15.939 20.4187 16.1313C19.414 18.4783 17.0987 20.3413 14.1624 20.3413C9.6291 20.3413 7.36243 16.3747 7.36243 13.5413C7.36243 10.9426 9.01769 8.34384 11.5691 7.26331C11.763 7.1812 11.8958 6.99487 11.8958 6.78433V3.04638C11.8958 2.73027 11.6055 2.49305 11.2996 2.57267C6.42644 3.84101 2.8291 8.27107 2.8291 13.5413Z" stroke="#222D50" stroke-width="2"/>
<path d="M25.268 11.2692C24.3652 6.83306 20.8712 3.33887 16.4352 2.43588C16.1355 2.37489 15.8629 2.60976 15.8629 2.91553L15.8629 6.59256C15.8629 6.8178 16.0142 7.01343 16.2277 7.08504C18.2144 7.75123 19.9412 9.34193 20.6363 11.4712C20.7068 11.6872 20.9036 11.8413 21.1309 11.8413L24.7883 11.8413C25.0941 11.8413 25.3289 11.5688 25.268 11.2692Z" stroke="#222D50" stroke-width="2"/>
</svg>
