<svg width="51" height="51" viewBox="0 0 51 51" fill="none" xmlns="http://www.w3.org/2000/svg">
<rect width="51" height="51" rx="2.5" fill="#FAFAFA"/>
<path d="M15.2998 22.7722V16.8C15.2998 15.9716 15.9714 15.3 16.7998 15.3H22.772C23.6005 15.3 24.272 15.9716 24.272 16.8V22.7722C24.272 23.6006 23.6005 24.2722 22.772 24.2722H16.7998C15.9714 24.2722 15.2998 23.6006 15.2998 22.7722Z" stroke="#222D50" stroke-width="2"/>
<path d="M15.2998 35.3334V29.3612C15.2998 28.5328 15.9714 27.8612 16.7998 27.8612H22.772C23.6005 27.8612 24.272 28.5328 24.272 29.3612V35.3334C24.272 36.1618 23.6005 36.8334 22.772 36.8334H16.7998C15.9714 36.8334 15.2998 36.1618 15.2998 35.3334Z" stroke="#222D50" stroke-width="2"/>
<path d="M27.8604 22.7722V16.8C27.8604 15.9716 28.5319 15.3 29.3604 15.3H35.3326C36.161 15.3 36.8326 15.9716 36.8326 16.8V22.7722C36.8326 23.6006 36.161 24.2722 35.3326 24.2722H29.3604C28.5319 24.2722 27.8604 23.6006 27.8604 22.7722Z" stroke="#222D50" stroke-width="2"/>
<path d="M27.8604 35.3334V29.3612C27.8604 28.5328 28.5319 27.8612 29.3604 27.8612H35.3326C36.161 27.8612 36.8326 28.5328 36.8326 29.3612V35.3334C36.8326 36.1618 36.161 36.8334 35.3326 36.8334H29.3604C28.5319 36.8334 27.8604 36.1618 27.8604 35.3334Z" stroke="#222D50" stroke-width="2"/>
</svg>
