<svg width="28" height="69" viewBox="0 0 28 69" fill="none" xmlns="http://www.w3.org/2000/svg">
<path fill-rule="evenodd" clip-rule="evenodd" d="M12.4818 23.3394L13.8881 18.1557C13.1161 19.8008 12.6625 21.5356 12.4818 23.3394ZM6.4865 33.4626C7.25028 31.5469 7.94121 29.6233 8.90726 27.8149C7.54292 29.4646 6.95228 31.4481 6.4865 33.4626ZM14.4172 32.9214C15.0623 33.3843 15.2738 32.9071 15.4871 32.4827C16.2092 31.048 15.6717 29.6767 15.1452 28.3705C14.7616 27.4185 14.2428 26.4772 13.3601 25.8455C13.0236 25.6045 12.6908 25.5067 12.6268 26.115C12.4523 27.7758 12.5046 29.415 13.1103 30.9938C13.3989 31.746 13.8194 32.4217 14.4172 32.9214ZM9.67259 28.3588C8.88014 29.3828 8.46252 30.6044 8.01193 31.8004C6.06536 36.9682 5.82238 42.2956 6.46547 47.7264C6.8952 51.3542 7.66663 54.9053 8.56493 58.4363C8.64661 58.7585 8.74213 59.0811 8.64917 59.4155C8.54454 59.791 8.37167 59.9872 8.06867 59.5648C7.99378 59.461 7.9971 59.2589 7.80838 59.4066C7.15716 59.9159 6.80752 59.4108 6.45826 58.9962C5.80254 58.2183 5.54348 57.2356 5.20415 56.3126C4.25313 53.7268 3.39906 51.1026 2.89667 48.389C2.43045 45.8699 2.33444 43.3114 2.31012 40.7517C2.29468 39.1224 2.30152 37.4648 2.8454 35.9388C3.20673 34.925 3.16637 33.8744 3.50926 32.8786C4.16671 30.9696 4.84183 29.0751 5.91037 27.3463C6.78997 25.9235 7.96406 24.8189 9.47682 24.1026C9.97567 23.8666 10.249 23.5082 10.363 22.9948C10.6704 21.6115 11.0233 20.2338 11.3917 18.8722C11.9906 16.6567 12.9383 14.5464 13.9611 12.4864C15.5925 9.20066 17.5311 6.1229 20.1974 3.55796C21.7646 2.05044 23.4076 0.665974 25.6501 0.277252C26.2405 0.174875 26.8048 0.187079 27.3124 0.565195C27.5313 0.727903 27.6512 0.916544 27.5921 1.20069C27.5219 1.53644 27.3227 1.43121 27.0718 1.43353C25.3508 1.4489 24.2909 2.64727 23.1719 3.70798C20.0881 6.63099 18.0413 10.2517 16.2708 14.0528C14.916 16.9616 13.858 19.9747 13.1539 23.1081C13.0979 23.3569 12.9049 23.6192 13.383 23.713C15.0486 24.0397 16.288 25.0388 17.2366 26.3801C18.7011 28.4503 19.4856 30.7063 18.6183 33.2413C18.1523 34.6035 17.2555 35.1031 15.824 35.0945C12.1769 35.073 10.1737 32.2917 9.93512 29.2494C9.91409 28.9769 9.89289 28.7047 9.87177 28.4328C9.80527 28.408 9.73884 28.3835 9.67259 28.3588Z" fill="#FEA8B0"/>
<path fill-rule="evenodd" clip-rule="evenodd" d="M11.4287 62.0689C10.9204 63.6891 10.6414 65.3416 10.6992 67.0406C10.9424 65.3835 11.1853 63.7262 11.4287 62.0689ZM3.93094 60.9217C5.31975 61.9368 6.51115 63.171 7.74749 64.3557C7.93226 64.5328 8.05532 64.8383 8.41823 64.7041C8.76678 64.5751 8.72381 64.258 8.73045 64.0107C8.76783 62.6631 9.19869 61.4018 9.48411 60.1043C9.66409 59.2846 9.69063 58.4242 9.90128 57.5877C10.226 56.2998 10.4545 54.9861 10.6899 53.6774C10.8093 53.0143 11.2339 52.4357 11.0986 51.6921C10.9659 50.9626 11.4199 50.5888 12.5067 50.563C13.0614 50.5496 13.6275 50.7805 13.6561 51.4815C13.6795 52.058 13.6587 52.6463 13.5693 53.2154C12.9773 56.9816 12.3549 60.7429 11.7586 64.5083C11.6247 65.3535 11.5476 66.2086 11.4546 67.0601C11.2855 68.6082 10.7901 68.9679 9.23781 68.7756C8.03278 68.6262 7.13759 68.0571 6.41757 67.0901C5.03137 65.2288 3.59209 63.4069 1.87242 61.8328C1.52774 61.5174 1.13907 61.2508 0.781619 60.9484C0.36743 60.5987 0.399202 60.3122 0.924862 60.1138C2.0897 59.6735 2.33373 59.738 3.93094 60.9217Z" fill="#FEA8B0"/>
</svg>
